<?xml version="1.0" encoding="UTF-8"?>
<svg version="1.1" xmlns="http://www.w3.org/2000/svg" width="225" height="225">
<path d="M0 0 C74.25 0 148.5 0 225 0 C225 74.25 225 148.5 225 225 C150.75 225 76.5 225 0 225 C0 150.75 0 76.5 0 0 Z " fill="#000000" transform="translate(0,0)"/>
<path d="M0 0 C1 1 1 1 1.0625 4.5625 C1.041875 5.696875 1.02125 6.83125 1 8 C-0.32 8.33 -1.64 8.66 -3 9 C-1.68 10.32 -0.36 11.64 1 13 C1.33 8.71 1.66 4.42 2 0 C7.94 0 13.88 0 20 0 C20 5.36369083 19.9500455 9.82753007 19 15 C18.505 15.495 18.505 15.495 18 16 C18.66 16.33 19.32 16.66 20 17 C20.33 11.39 20.66 5.78 21 0 C23.578125 -0.061875 26.15625 -0.12375 28.8125 -0.1875 C30.02450073 -0.22846802 30.02450073 -0.22846802 31.26098633 -0.27026367 C36.50046478 -0.33139421 36.50046478 -0.33139421 38.99609375 1.32421875 C40.53984456 3.90114132 40.24471229 6.06345247 40 9 C39.67 9.99 39.34 10.98 39 12 C39.66 12.99 40.32 13.98 41 15 C41.42152344 14.00097656 41.84304687 13.00195312 42.27734375 11.97265625 C42.83060217 10.66921692 43.38399451 9.36583443 43.9375 8.0625 C44.21529297 7.40314453 44.49308594 6.74378906 44.77929688 6.06445312 C46.88671875 1.11328125 46.88671875 1.11328125 48 0 C51.33618231 -0.14257189 54.65975606 -0.04228157 58 0 C59.98 6.27 61.96 12.54 64 19 C64 13.85830436 63.93451651 12.14501093 62 7.8125 C60.69565311 4.86413255 60 3.25782013 60 0 C62.97 0 65.94 0 69 0 C69.495 0.99 69.495 0.99 70 2 C70.66 1.34 71.32 0.68 72 0 C74.9093558 -0.14517744 77.719946 -0.18630796 80.625 -0.125 C81.82769531 -0.11146484 81.82769531 -0.11146484 83.0546875 -0.09765625 C85.03658523 -0.07406223 87.01832981 -0.03819065 89 0 C89 5.28 89 10.56 89 16 C89.66 16 90.32 16 91 16 C91.33 10.72 91.66 5.44 92 0 C94.97 0 97.94 0 101 0 C101.40943555 16.19545072 101.40943555 16.19545072 99 22 C94.80646094 25.12077325 91.13789928 25.5604981 86 25 C81.4 22.8 81.4 22.8 80 20 C79.76970044 17.62876754 79.58880058 15.25258057 79.4375 12.875 C79.35371094 11.59367188 79.26992187 10.31234375 79.18359375 8.9921875 C79.12300781 8.00476563 79.06242187 7.01734375 79 6 C75.44172707 12.19828188 74.39660003 16.8611995 74 24 C67.73 24 61.46 24 55 24 C54.505 22.02 54.505 22.02 54 20 C52.35 19.67 50.7 19.34 49 19 C48.505 21.475 48.505 21.475 48 24 C32.49 24 16.98 24 1 24 C0.67 23.34 0.34 22.68 0 22 C-0.474375 22.495 -0.94875 22.99 -1.4375 23.5 C-5.16919689 25.68440794 -8.76279307 25.42535668 -13 25 C-13.66 24.67 -14.32 24.34 -15 24 C-15 21.03 -15 18.06 -15 15 C-13.68 15 -12.36 15 -11 15 C-11.66 14.505 -12.32 14.01 -13 13.5 C-15.42484235 10.46894706 -15.7243888 8.71525833 -15.50390625 4.91015625 C-15 3 -15 3 -12.5625 0.4375 C-8.05953675 -1.37948517 -4.66814972 -1.14983898 0 0 Z " fill="#CDAEAB" transform="translate(20,123)"/>
<path d="M0 0 C1.24072266 -0.03287109 2.48144531 -0.06574219 3.75976562 -0.09960938 C4.95150391 -0.10669922 6.14324219 -0.11378906 7.37109375 -0.12109375 C8.46220459 -0.13454834 9.55331543 -0.14800293 10.67749023 -0.16186523 C13.5625 0.4375 13.5625 0.4375 15.96508789 2.76538086 C17.5625 5.4375 17.5625 5.4375 17.3125 8.75 C17.065 9.636875 16.8175 10.52375 16.5625 11.4375 C17.94054791 10.54636235 19.31476487 9.64930008 20.6875 8.75 C21.93660156 7.93595703 21.93660156 7.93595703 23.2109375 7.10546875 C25.77120115 5.40111672 25.77120115 5.40111672 28.3125 2.5625 C33.33100579 -0.71883071 38.7177952 -0.32941569 44.5625 0.4375 C46.5625 2.4375 46.5625 2.4375 46.5625 5.4375 C44.26306957 7.29992133 42.00463863 8.97254905 39.5625 10.625 C38.89476563 11.08841797 38.22703125 11.55183594 37.5390625 12.02929688 C35.88640133 13.17435497 34.22522331 14.30710265 32.5625 15.4375 C38.0075 15.9325 38.0075 15.9325 43.5625 16.4375 C43.0675 18.9125 43.0675 18.9125 42.5625 21.4375 C44.2125 21.4375 45.8625 21.4375 47.5625 21.4375 C46.5725 24.7375 45.5825 28.0375 44.5625 31.4375 C42.5825 31.4375 40.6025 31.4375 38.5625 31.4375 C37.9025 33.0875 37.2425 34.7375 36.5625 36.4375 C32.9325 36.4375 29.3025 36.4375 25.5625 36.4375 C25.0675 34.4575 25.0675 34.4575 24.5625 32.4375 C23.71945313 32.40011719 22.87640625 32.36273438 22.0078125 32.32421875 C20.91210938 32.25847656 19.81640625 32.19273438 18.6875 32.125 C17.59695312 32.06699219 16.50640625 32.00898437 15.3828125 31.94921875 C14.45210937 31.78035156 13.52140625 31.61148438 12.5625 31.4375 C11.9025 30.4475 11.2425 29.4575 10.5625 28.4375 C9.840625 29.200625 9.11875 29.96375 8.375 30.75 C2.61681085 36.25226963 -1.57605763 36.98300928 -9.3125 37 C-10.18519531 37.03673828 -11.05789062 37.07347656 -11.95703125 37.11132812 C-17.78132577 37.15074064 -20.94442293 36.02779734 -25.26220703 32.10253906 C-26.4375 30.4375 -26.4375 30.4375 -26.4375 26.625 C-25.4375 23.4375 -25.4375 23.4375 -24.4375 22.4375 C-22.10932036 22.06989269 -19.7756615 21.73508419 -17.4375 21.4375 C-18.118125 20.921875 -18.79875 20.40625 -19.5 19.875 C-21.4375 17.4375 -21.4375 17.4375 -21.4375 14.1875 C-17.9702938 1.18547677 -12.88909532 0.06007346 0 0 Z " fill="#CA1314" transform="translate(44.4375,84.5625)"/>
<path d="M0 0 C2.35570658 3.99445898 2.00480106 7.9271064 1.4375 12.4375 C-1.32770378 21.19397863 -7.20017361 28.26260289 -13.25 35 C-13.72566406 35.53713623 -14.20132813 36.07427246 -14.69140625 36.62768555 C-15.91800484 37.95931597 -17.23528366 39.2061266 -18.5625 40.4375 C-19.5525 40.4375 -20.5425 40.4375 -21.5625 40.4375 C-21.06621094 39.95023438 -20.56992188 39.46296875 -20.05859375 38.9609375 C-13.60234778 32.22291988 -6.34403818 22.63191634 -5.9375 12.875 C-6.73021065 8.51509142 -7.53582376 6.05990486 -11.05078125 3.24609375 C-18.28946105 -1.20251675 -27.0822054 -0.42032446 -35.1328125 1.12109375 C-37.97043384 1.82211368 -40.7692336 2.57803342 -43.5625 3.4375 C-41.95181641 3.40269531 -41.95181641 3.40269531 -40.30859375 3.3671875 C-38.87240285 3.34841376 -37.43620435 3.3302153 -36 3.3125 C-35.29552734 3.29574219 -34.59105469 3.27898437 -33.86523438 3.26171875 C-26.69314059 3.1956165 -20.93094436 4.37582389 -15.5625 9.4375 C-12.54996071 13.95630893 -13.0189216 18.1410951 -13.5625 23.4375 C-15.76024627 32.67359827 -21.78620542 41.03922407 -29.5625 46.4375 C-28.40813826 44.12317282 -27.24200553 41.81726848 -26.0546875 39.51953125 C-21.89692883 31.11362785 -20.10117516 25.68107738 -22.625 16.625 C-25.13964924 12.48799641 -27.22623834 11.48736915 -31.5625 9.4375 C-32.2225 9.1075 -32.8825 8.7775 -33.5625 8.4375 C-34.95188495 8.34247174 -36.34565188 8.30677161 -37.73828125 8.3046875 C-38.56650391 8.30339844 -39.39472656 8.30210938 -40.24804688 8.30078125 C-41.54838867 8.30658203 -41.54838867 8.30658203 -42.875 8.3125 C-43.73029297 8.30863281 -44.58558594 8.30476563 -45.46679688 8.30078125 C-49.62540869 8.30722372 -53.50841946 8.38427495 -57.5625 9.4375 C-56.5003125 9.52386719 -55.438125 9.61023438 -54.34375 9.69921875 C-44.72990579 10.60492015 -37.86395438 11.69487081 -31.125 19.125 C-27.30655536 24.77629807 -27.5903048 31.82723402 -28.5625 38.4375 C-30.53463891 43.81719538 -32.74482605 48.22571736 -37.5625 51.4375 C-37.32660156 50.19613281 -37.32660156 50.19613281 -37.0859375 48.9296875 C-35.9487231 41.34260041 -34.64090879 31.51451674 -38.75 24.6875 C-42.91302821 19.39650046 -47.86825052 15.72853383 -54.5625 14.4375 C-60.22404841 14.08945399 -65.89725717 14.26368005 -71.5625 14.4375 C-67.57514116 10.96114249 -63.50398858 8.70840929 -58.75 6.5 C-58.00733887 6.15372559 -57.26467773 5.80745117 -56.49951172 5.45068359 C-39.74402991 -2.15964419 -17.08746913 -10.41918849 0 0 Z " fill="#09A3DF" transform="translate(218.5625,88.5625)"/>
<path d="M0 0 C14 0 28 0 42 0 C42 7.92 42 15.84 42 24 C33.42 24 24.84 24 16 24 C16 21.03 16 18.06 16 15 C15.67 15.33 15.34 15.66 15 16 C13.00041636 16.04080783 10.99954746 16.04254356 9 16 C9 18.64 9 21.28 9 24 C5.7 24 2.4 24 -1 24 C-0.67 16.08 -0.34 8.16 0 0 Z " fill="#C7A8A5" transform="translate(129,123)"/>
<path d="M0 0 C3.19087986 2.81191551 3.86034756 5.07480257 4.5 9.3125 C4.35762405 18.95847032 -2.81554928 28.58387491 -9.30078125 35.1328125 C-11.06921718 36.90602744 -11.06921718 36.90602744 -12.0234375 39.05078125 C-14.55292916 44.09964661 -20.27978647 47.23694818 -25 50 C-27.69992904 51.95669015 -30.35398338 53.9711684 -33 56 C-33.66 55.67 -34.32 55.34 -35 55 C-33.76302083 53.53515625 -32.52604167 52.0703125 -31.2890625 50.60546875 C-30.10798901 49.1344954 -29.04641471 47.56962206 -28 46 C-27.34 46 -26.68 46 -26 46 C-20.23819856 37.75170687 -18.26614863 30.03156866 -20 20 C-22.1353253 16.09300742 -24.15141738 13.43501212 -28 11.1875 C-28.66 10.78917969 -29.32 10.39085938 -30 9.98046875 C-34.40499094 7.82099077 -38.91518264 7.71625601 -43.75 7.4375 C-44.44738281 7.39431641 -45.14476562 7.35113281 -45.86328125 7.30664062 C-47.57531922 7.20110404 -49.28763561 7.1001009 -51 7 C-45.59529652 3.39686435 -39.86541186 3.78881701 -33.5625 3.75 C-32.72912109 3.729375 -31.89574219 3.70875 -31.03710938 3.6875 C-23.65979412 3.64084504 -18.37162035 5.77759133 -13 11 C-10.66345644 15.7843511 -9.97610009 20.7908158 -11 26 C-12.90920371 30.86746461 -15.45775136 35.4408143 -18 40 C-17.67 40 -17.34 40 -17 40 C-9.89909709 32.3628733 -4.99080528 24.77123686 -4.4375 14.1875 C-4.58321756 10.21949882 -4.82926048 9.2261145 -7.3125 5.9375 C-13.64377224 1.37309443 -18.16728424 0.83177916 -25.875 0.875 C-26.89787109 0.86919922 -26.89787109 0.86919922 -27.94140625 0.86328125 C-32.39055248 0.87175581 -36.60958055 1.27781612 -41 2 C-32.20979952 -6.79020048 -9.57708611 -6.32449083 0 0 Z " fill="#02070C" transform="translate(209,92)"/>
<path d="M0 0 C1.24072266 -0.03287109 2.48144531 -0.06574219 3.75976562 -0.09960938 C4.95150391 -0.10669922 6.14324219 -0.11378906 7.37109375 -0.12109375 C8.46220459 -0.13454834 9.55331543 -0.14800293 10.67749023 -0.16186523 C13.5625 0.4375 13.5625 0.4375 15.99633789 2.73413086 C17.5625 5.4375 17.5625 5.4375 16.8125 9.25 C16.19375 10.8278125 16.19375 10.8278125 15.5625 12.4375 C14.5625 9.4375 14.5625 9.4375 14.0625 6.875 C13.67307602 4.44335058 13.67307602 4.44335058 12.5625 2.4375 C8.6458957 2.3794034 4.72940237 2.34387107 0.8125 2.3125 C-0.29867187 2.29574219 -1.40984375 2.27898437 -2.5546875 2.26171875 C-3.62460937 2.25527344 -4.69453125 2.24882813 -5.796875 2.2421875 C-6.78139648 2.23171387 -7.76591797 2.22124023 -8.78027344 2.21044922 C-11.52828892 2.4452576 -13.1210906 2.97516006 -15.4375 4.4375 C-18.23251022 8.07101329 -17.78424193 12.06855173 -17.4375 16.4375 C-16.440208 18.29604418 -16.440208 18.29604418 -14.4375 19.4375 C-11.08560247 19.87216799 -11.08560247 19.87216799 -7.3125 19.875 C-1.04468507 20.12468977 4.27054936 20.87425324 9.5625 24.4375 C10.305 25.324375 11.0475 26.21125 11.8125 27.125 C16.33407443 30.92723304 21.83300076 30.34522402 27.5625 30.4375 C27.2325 31.7575 26.9025 33.0775 26.5625 34.4375 C29.8625 34.4375 33.1625 34.4375 36.5625 34.4375 C36.8925 33.1175 37.2225 31.7975 37.5625 30.4375 C39.5425 30.4375 41.5225 30.4375 43.5625 30.4375 C43.706875 29.48875 43.85125 28.54 44 27.5625 C44.5625 24.4375 44.5625 24.4375 45.5625 22.4375 C43.9125 22.4375 42.2625 22.4375 40.5625 22.4375 C40.8925 21.1175 41.2225 19.7975 41.5625 18.4375 C38.2625 18.4375 34.9625 18.4375 31.5625 18.4375 C31.2325 19.7575 30.9025 21.0775 30.5625 22.4375 C27.5925 22.4375 24.6225 22.4375 21.5625 22.4375 C24.41526137 19.50549526 27.21329784 16.79434596 30.5625 14.4375 C31.2225 14.7675 31.8825 15.0975 32.5625 15.4375 C34.43306791 15.6650015 36.30935958 15.84712811 38.1875 16 C39.19039063 16.08378906 40.19328125 16.16757813 41.2265625 16.25390625 C42.38285156 16.34478516 42.38285156 16.34478516 43.5625 16.4375 C43.0675 18.9125 43.0675 18.9125 42.5625 21.4375 C44.2125 21.4375 45.8625 21.4375 47.5625 21.4375 C46.5725 24.7375 45.5825 28.0375 44.5625 31.4375 C42.5825 31.4375 40.6025 31.4375 38.5625 31.4375 C37.9025 33.0875 37.2425 34.7375 36.5625 36.4375 C32.9325 36.4375 29.3025 36.4375 25.5625 36.4375 C25.0675 34.4575 25.0675 34.4575 24.5625 32.4375 C23.71945313 32.40011719 22.87640625 32.36273438 22.0078125 32.32421875 C20.91210938 32.25847656 19.81640625 32.19273438 18.6875 32.125 C17.59695312 32.06699219 16.50640625 32.00898437 15.3828125 31.94921875 C14.45210937 31.78035156 13.52140625 31.61148438 12.5625 31.4375 C11.9025 30.4475 11.2425 29.4575 10.5625 28.4375 C9.840625 29.200625 9.11875 29.96375 8.375 30.75 C2.61681085 36.25226963 -1.57605763 36.98300928 -9.3125 37 C-10.18519531 37.03673828 -11.05789062 37.07347656 -11.95703125 37.11132812 C-17.78132577 37.15074064 -20.94442293 36.02779734 -25.26220703 32.10253906 C-26.4375 30.4375 -26.4375 30.4375 -26.4375 26.625 C-25.4375 23.4375 -25.4375 23.4375 -24.4375 22.4375 C-22.10932036 22.06989269 -19.7756615 21.73508419 -17.4375 21.4375 C-18.118125 20.921875 -18.79875 20.40625 -19.5 19.875 C-21.4375 17.4375 -21.4375 17.4375 -21.4375 14.1875 C-17.9702938 1.18547677 -12.88909532 0.06007346 0 0 Z " fill="#BD2324" transform="translate(44.4375,84.5625)"/>
<path d="M0 0 C1.65225586 -0.03673828 1.65225586 -0.03673828 3.33789062 -0.07421875 C4.39298828 -0.07808594 5.44808594 -0.08195312 6.53515625 -0.0859375 C7.49945557 -0.09415527 8.46375488 -0.10237305 9.45727539 -0.11083984 C11.9375 0.375 11.9375 0.375 13.72827148 2.16552734 C15.19014702 4.83663044 15.71082669 7.22751706 15.63671875 10.27734375 C14.38039183 14.04632451 11.19133629 15.78478153 8.00390625 17.9296875 C5.82006525 19.21268794 5.82006525 19.21268794 4.9375 21.375 C3.2875 21.375 1.6375 21.375 -0.0625 21.375 C-0.0625 20.715 -0.0625 20.055 -0.0625 19.375 C-1.09890625 19.42140625 -2.1353125 19.4678125 -3.203125 19.515625 C-4.57288779 19.55315275 -5.94268182 19.58955184 -7.3125 19.625 C-8.33537109 19.67527344 -8.33537109 19.67527344 -9.37890625 19.7265625 C-12.80318055 19.79305326 -14.70822596 19.6301449 -17.51953125 17.60546875 C-19.79234342 14.31996052 -19.69075913 11.18240174 -19.0625 7.375 C-15.35383717 -1.1549245 -8.15010335 0.00957147 0 0 Z " fill="#DC0607" transform="translate(45.0625,85.625)"/>
<path d="M0 0 C0 3 0 3 -2 6 C-2.77520227 11.84925349 -2.48182551 17.07741911 1 22 C5.44111571 26.02476111 11.28976887 25.70998826 17 26 C13.18210715 29.47081168 9.94778762 30.69303723 5 32 C4.34 32.66 3.68 33.32 3 34 C-5.08242943 36.78792661 -13.62214309 38.45650291 -22 36.1875 C-24 35 -24 35 -26 32 C-26.12803005 24.57425689 -23.02335337 20.30178404 -18 15 C-17.34 14.67 -16.68 14.34 -16 14 C-17.12451727 16.9719385 -18.22293791 19.33440687 -20 22 C-20.31425684 25.45682526 -20.44792939 28.01906935 -18.9921875 31.20703125 C-15.93786747 33.95591927 -12.69710079 33.42641855 -8.8125 33.25 C-8.06291016 33.23195312 -7.31332031 33.21390625 -6.54101562 33.1953125 C-4.6934629 33.14824109 -2.84656841 33.07649766 -1 33 C-1.59167969 32.96261719 -2.18335937 32.92523438 -2.79296875 32.88671875 C-7.56797099 32.48945103 -11.1045504 32.04332 -15 29 C-16.77115018 25.45769964 -16.64990754 21.85770809 -16 18 C-14.09720989 14.16514609 -11.92792859 9.9639643 -8 8 C-9.875 12.75 -9.875 12.75 -11 15 C-11.27342893 17.07346793 -11.27342893 17.07346793 -11.3125 19.375 C-11.34988281 20.14585938 -11.38726562 20.91671875 -11.42578125 21.7109375 C-10.81952637 24.97025272 -9.64194417 26.03250336 -7 28 C-3.74641317 28.90820365 -3.74641317 28.90820365 -0.25 29.25 C0.92046875 29.39953125 2.0909375 29.5490625 3.296875 29.703125 C4.18890625 29.80109375 5.0809375 29.8990625 6 30 C6 29.34 6 28.68 6 28 C4.948125 27.9175 3.89625 27.835 2.8125 27.75 C-1.34583134 26.9319676 -3.03734506 25.96265494 -6 23 C-8.2583256 19.27492685 -8.24839006 16.68474009 -7.6875 12.45703125 C-6.38314013 7.79542694 -3.42451294 3.42451294 0 0 Z " fill="#08A2DE" transform="translate(118,82)"/>
<path d="M0 0 C3.19087986 2.81191551 3.86034756 5.07480257 4.5 9.3125 C4.21699485 22.18923426 -6.46696146 32.56504236 -15 41 C-15 37.24446972 -13.9285656 36.26810825 -11.6875 33.3125 C-6.56204626 26.1327146 -4.33928137 20.41980786 -4.57421875 11.4921875 C-5.21529891 7.73981007 -6.98087927 6.17657541 -10 4 C-15.02802932 0.64798045 -19.97572987 0.84191998 -25.875 0.875 C-26.89787109 0.86919922 -26.89787109 0.86919922 -27.94140625 0.86328125 C-32.39055248 0.87175581 -36.60958055 1.27781612 -41 2 C-32.20979952 -6.79020048 -9.57708611 -6.32449083 0 0 Z " fill="#02070C" transform="translate(209,92)"/>
<path d="M0 0 C13.44965291 -0.37017393 13.44965291 -0.37017393 15.96875 1.32421875 C17.59795346 3.97167437 16.67035819 6.0748006 16 9 C15.90362735 12.10385613 15.90362735 12.10385613 16.6875 15.5 C17 19 17 19 16 20.70703125 C12.93697844 22.68722683 9.82675455 22.31449417 6.3125 22.1875 C3.899375 22.125625 1.48625 22.06375 -1 22 C-0.67 14.74 -0.34 7.48 0 0 Z " fill="#970904" transform="translate(42,124)"/>
<path d="M0 0 C5.28728866 2.43023647 8.90802331 6.25354661 11.5 11.4375 C12.50507663 21.5009888 11.90355091 29.16429918 5.5 37.4375 C4.51 38.0975 3.52 38.7575 2.5 39.4375 C2.73589844 38.19613281 2.73589844 38.19613281 2.9765625 36.9296875 C4.1137769 29.34260041 5.42159121 19.51451674 1.3125 12.6875 C-4.02829999 5.90364263 -11.49231511 1.76637079 -20.0625 0.6875 C-21.196875 0.605 -22.33125 0.5225 -23.5 0.4375 C-16.87027915 -3.64484042 -7.06759292 -2.50265828 0 0 Z " fill="#08A2DE" transform="translate(178.5,100.5625)"/>
<path d="M0 0 C1 1 1 1 1.0625 4.5625 C1.041875 5.696875 1.02125 6.83125 1 8 C-0.32 8.33 -1.64 8.66 -3 9 C-2.484375 9.639375 -1.96875 10.27875 -1.4375 10.9375 C0.48419677 15.03154963 0.34063213 18.68112813 -1 23 C-4.157776 25.105184 -4.95397134 25.25289344 -8.5625 25.1875 C-9.34753906 25.18105469 -10.13257813 25.17460937 -10.94140625 25.16796875 C-13 25 -13 25 -15 24 C-15 21.03 -15 18.06 -15 15 C-13.68 15 -12.36 15 -11 15 C-11.66 14.505 -12.32 14.01 -13 13.5 C-15.42484235 10.46894706 -15.7243888 8.71525833 -15.50390625 4.91015625 C-15 3 -15 3 -12.5625 0.4375 C-8.05953675 -1.37948517 -4.66814972 -1.14983898 0 0 Z " fill="#960903" transform="translate(20,123)"/>
<path d="M0 0 C2.52113092 -0.05447822 5.0410585 -0.09389852 7.5625 -0.125 C8.26697266 -0.14175781 8.97144531 -0.15851563 9.69726562 -0.17578125 C16.86935941 -0.2418835 22.63155564 0.93832389 28 6 C31.01253929 10.51880893 30.5435784 14.7035951 30 20 C27.80225373 29.23609827 21.77629458 37.60172407 14 43 C15.15436174 40.68567282 16.32049447 38.37976848 17.5078125 36.08203125 C21.66557117 27.67612785 23.46132484 22.24357738 20.9375 13.1875 C17.79673343 8.02043242 14.26387377 6.61285731 8.65234375 5.09375 C5.44362174 4.33957812 2.23290087 3.64171867 -1 3 C-0.67 2.01 -0.34 1.02 0 0 Z " fill="#09A3DE" transform="translate(175,92)"/>
<path d="M0 0 C2.31 0 4.62 0 7 0 C7 5.28 7 10.56 7 16 C8.32 16 9.64 16 11 16 C11.33 10.72 11.66 5.44 12 0 C14.31 0 16.62 0 19 0 C18.88588196 2.75084547 18.75914051 5.50011947 18.625 8.25 C18.57859375 9.41595703 18.57859375 9.41595703 18.53125 10.60546875 C18.15224053 17.99615351 18.15224053 17.99615351 16 21 C13.41991408 22.29004296 11.44258426 22.20410224 8.5625 22.25 C7.11037109 22.28867188 7.11037109 22.28867188 5.62890625 22.328125 C3 22 3 22 1.35400391 20.75756836 C-0.36365316 18.52795905 -0.34913627 17.34043493 -0.29296875 14.55078125 C-0.28330078 13.70322266 -0.27363281 12.85566406 -0.26367188 11.98242188 C-0.23853516 11.10134766 -0.21339844 10.22027344 -0.1875 9.3125 C-0.17396484 8.41982422 -0.16042969 7.52714844 -0.14648438 6.60742188 C-0.11114079 4.40433834 -0.06180493 2.20247418 0 0 Z " fill="#990E09" transform="translate(101,124)"/>
<path d="M0 0 C2.64 0 5.28 0 8 0 C9.00446104 3.2903223 10.00280756 6.58246822 11 9.875 C11.28617188 10.81214844 11.57234375 11.74929687 11.8671875 12.71484375 C12.13789062 13.61074219 12.40859375 14.50664062 12.6875 15.4296875 C12.93886719 16.25710449 13.19023438 17.08452148 13.44921875 17.93701172 C14 20 14 20 14 22 C11.69 22 9.38 22 7 22 C6.67 20.68 6.34 19.36 6 18 C3.69 17.67 1.38 17.34 -1 17 C-1.33 18.65 -1.66 20.3 -2 22 C-4.64 22 -7.28 22 -10 22 C-6.9698293 14.49549213 -3.73393831 7.18187283 0 0 Z " fill="#971410" transform="translate(69,124)"/>
<path d="M0 0 C5.28 0 10.56 0 16 0 C16 1.65 16 3.3 16 5 C13.03 5 10.06 5 7 5 C7 5.99 7 6.98 7 8 C9.31 8 11.62 8 14 8 C14 9.98 14 11.96 14 14 C11.69 14 9.38 14 7 14 C7 14.99 7 15.98 7 17 C9.64 17 12.28 17 15 17 C15 18.65 15 20.3 15 22 C10.05 22 5.1 22 0 22 C0 14.74 0 7.48 0 0 Z " fill="#98100B" transform="translate(23,124)"/>
<path d="M0 0 C0.66 0.33 1.32 0.66 2 1 C1.65066406 1.47308594 1.30132812 1.94617188 0.94140625 2.43359375 C-2.49367581 7.42565351 -4.53644215 11.83662207 -4 18 C-2.51939168 21.63422041 -1.33497477 23.39444443 2.2734375 25.03125 C4.50152484 25.790346 6.71376915 26.44309761 9 27 C9 27.66 9 28.32 9 29 C2.04145504 29.36481692 -2.10727389 29.23920275 -7.60546875 24.6640625 C-9.82684408 22.01334571 -9.40265092 19.62763143 -9.3046875 16.296875 C-8.88366859 13.12304011 -7.66531778 10.70614139 -6 8 C-10.17310631 13.25364276 -12.68718284 17.23679843 -12.50390625 24.0546875 C-11.87536387 26.48115344 -10.9188124 27.42534806 -9 29 C-6.29816945 30.35091528 -3.88191794 30.33858058 -0.875 30.5625 C0.76855469 30.68818359 0.76855469 30.68818359 2.4453125 30.81640625 C3.70988281 30.90728516 3.70988281 30.90728516 5 31 C1.29916112 33.46722592 -1.64779838 33.4029366 -5.9375 33.4375 C-6.65357422 33.47037109 -7.36964844 33.50324219 -8.10742188 33.53710938 C-11.94553891 33.57623754 -13.62998518 33.34604861 -16.47265625 30.6875 C-18.49507047 27.12887855 -18.5672582 25.04171471 -18 21 C-16.125 17.875 -16.125 17.875 -14 15 C-13.731875 14.175 -13.46375 13.35 -13.1875 12.5 C-11.37393955 8.68197801 -8.28106555 6.56993332 -5 4 C-4.030625 3.21625 -3.06125 2.4325 -2.0625 1.625 C-1.0415625 0.820625 -1.0415625 0.820625 0 0 Z " fill="#02070E" transform="translate(115,83)"/>
<path d="M0 0 C2.97 0 5.94 0 9 0 C9.66 3.63 10.32 7.26 11 11 C11.33 9.68 11.66 8.36 12 7 C12.99 7 13.98 7 15 7 C15.93853865 11.37984703 15.76166521 14.62042504 15 19 C15.33 20.32 15.66 21.64 16 23 C13.03 22.67 10.06 22.34 7 22 C6.67 18.37 6.34 14.74 6 11 C5.34 14.63 4.68 18.26 4 22 C2.35 22 0.7 22 -1 22 C-0.67 14.74 -0.34 7.48 0 0 Z " fill="#960E09" transform="translate(147,124)"/>
<path d="M0 0 C3.63 0 7.26 0 11 0 C11 7.92 11 15.84 11 24 C8.36 24 5.72 24 3 24 C2.34 23.34 1.68 22.68 1 22 C1.0234375 18.7421875 1.0234375 18.7421875 1.375 14.875 C1.48585937 13.59367188 1.59671875 12.31234375 1.7109375 10.9921875 C1.80632812 10.00476563 1.90171875 9.01734375 2 8 C1.34 8 0.68 8 0 8 C-0.38063221 5.6739143 -0.71269945 3.33944736 -1 1 C-0.67 0.67 -0.34 0.34 0 0 Z " fill="#98110C" transform="translate(160,123)"/>
<path d="M0 0 C4.62 0 9.24 0 14 0 C14 1.65 14 3.3 14 5 C11.36 5 8.72 5 6 5 C6 5.99 6 6.98 6 8 C7.98 8 9.96 8 12 8 C12 9.98 12 11.96 12 14 C10.02 14 8.04 14 6 14 C6 16.64 6 19.28 6 22 C3.69 22 1.38 22 -1 22 C-1.10331031 14.57313685 -0.99862699 7.36487404 0 0 Z " fill="#990F0A" transform="translate(131,124)"/>
<path d="M0 0 C2.31 0 4.62 0 7 0 C7.66 1.65 8.32 3.3 9 5 C9.37125 4.175 9.7425 3.35 10.125 2.5 C10.74375 1.675 11.3625 0.85 12 0 C15.1875 -0.3125 15.1875 -0.3125 18 0 C16.97767269 3.22426305 15.88261884 6.24884806 14.4375 9.3125 C12.77277841 13.58287277 12.29856805 17.45970651 12 22 C9.69 22 7.38 22 5 22 C4.96132812 21.00033203 4.96132812 21.00033203 4.921875 19.98046875 C4.47603402 12.7355529 2.78101468 6.68737019 0 0 Z " fill="#970D08" transform="translate(81,124)"/>
<path d="M0 0 C5.94 0 11.88 0 18 0 C18 5.36369083 17.9500455 9.82753007 17 15 C16.67 15.33 16.34 15.66 16 16 C16.66 16.33 17.32 16.66 18 17 C18.33 11.39 18.66 5.78 19 0 C24.28 0 29.56 0 35 0 C35.495 0.99 35.495 0.99 36 2 C30.72 1.67 25.44 1.34 20 1 C20 7.93 20 14.86 20 22 C19.34 22 18.68 22 18 22 C18 22.66 18 23.32 18 24 C11.73 24 5.46 24 -1 24 C-3.35333796 19.29332409 -3.17102038 17.1306114 -3 12 C-2.01 12.495 -2.01 12.495 -1 13 C-0.67 8.71 -0.34 4.42 0 0 Z M1 1 C1 8.26 1 15.52 1 23 C5.95 23 10.9 23 16 23 C16 21.35 16 19.7 16 18 C13.36 18 10.72 18 8 18 C8 17.01 8 16.02 8 15 C10.31 15 12.62 15 15 15 C15 13.02 15 11.04 15 9 C12.69 9 10.38 9 8 9 C8 8.01 8 7.02 8 6 C10.97 6 13.94 6 17 6 C17 4.35 17 2.7 17 1 C11.72 1 6.44 1 1 1 Z " fill="#C3A7A4" transform="translate(22,123)"/>
<path d="M0 0 C0.66 0.33 1.32 0.66 2 1 C3.87056791 1.2275015 5.74685958 1.40962811 7.625 1.5625 C8.62789062 1.64628906 9.63078125 1.73007813 10.6640625 1.81640625 C11.43492188 1.87699219 12.20578125 1.93757813 13 2 C12.67 3.65 12.34 5.3 12 7 C13.65 7 15.3 7 17 7 C16.01 10.3 15.02 13.6 14 17 C12.02 17 10.04 17 8 17 C7.01 19.475 7.01 19.475 6 22 C2.37 22 -1.26 22 -5 22 C-5.33 20.68 -5.66 19.36 -6 18 C-6.81984375 17.98582031 -7.6396875 17.97164062 -8.484375 17.95703125 C-17.39622642 17.5626072 -17.39622642 17.5626072 -20.75 14.4375 C-21.1625 13.633125 -21.575 12.82875 -22 12 C-21.67 11.34 -21.34 10.68 -21 10 C-20.1646875 11.2065625 -20.1646875 11.2065625 -19.3125 12.4375 C-15.63104192 16.24813204 -10.65951448 15.75205101 -5.66796875 15.95703125 C-4.78753906 15.97121094 -3.90710938 15.98539063 -3 16 C-3.33 17.32 -3.66 18.64 -4 20 C-0.7 20 2.6 20 6 20 C6.33 18.68 6.66 17.36 7 16 C8.98 16 10.96 16 13 16 C13.144375 15.05125 13.28875 14.1025 13.4375 13.125 C14 10 14 10 15 8 C13.35 8 11.7 8 10 8 C10.33 6.68 10.66 5.36 11 4 C7.7 4 4.4 4 1 4 C0.67 5.32 0.34 6.64 0 8 C-2.97 8 -5.94 8 -9 8 C-6.14723863 5.06799526 -3.34920216 2.35684596 0 0 Z " fill="#DCDCDB" transform="translate(75,99)"/>
<path d="M0 0 C1.24072266 -0.03287109 2.48144531 -0.06574219 3.75976562 -0.09960938 C4.95150391 -0.10669922 6.14324219 -0.11378906 7.37109375 -0.12109375 C8.46220459 -0.13454834 9.55331543 -0.14800293 10.67749023 -0.16186523 C13.5625 0.4375 13.5625 0.4375 15.99633789 2.73413086 C17.5625 5.4375 17.5625 5.4375 16.8125 9.25 C16.19375 10.8278125 16.19375 10.8278125 15.5625 12.4375 C14.5625 9.4375 14.5625 9.4375 14.0625 6.875 C13.67307602 4.44335058 13.67307602 4.44335058 12.5625 2.4375 C8.6458957 2.3794034 4.72940237 2.34387107 0.8125 2.3125 C-0.29867187 2.29574219 -1.40984375 2.27898437 -2.5546875 2.26171875 C-3.62460937 2.25527344 -4.69453125 2.24882813 -5.796875 2.2421875 C-6.78139648 2.23171387 -7.76591797 2.22124023 -8.78027344 2.21044922 C-11.53914758 2.44618543 -13.13015518 2.93398335 -15.4375 4.4375 C-16.85520757 6.68031657 -16.85520757 6.68031657 -17.8125 9.3125 C-18.17085937 10.17617187 -18.52921875 11.03984375 -18.8984375 11.9296875 C-19.65143608 14.3982523 -19.65143608 14.3982523 -18.7265625 16.5703125 C-16.88262113 19.28962746 -16.88262113 19.28962746 -14.4375 21.4375 C-11.24504002 22.01842992 -11.24504002 22.01842992 -7.75 22.125 C-6.57050781 22.19074219 -5.39101563 22.25648437 -4.17578125 22.32421875 C-3.27214844 22.36160156 -2.36851563 22.39898437 -1.4375 22.4375 C-1.7675 23.0975 -2.0975 23.7575 -2.4375 24.4375 C-5.0775 24.4375 -7.7175 24.4375 -10.4375 24.4375 C-10.7675 25.0975 -11.0975 25.7575 -11.4375 26.4375 C-12.0975 26.1075 -12.7575 25.7775 -13.4375 25.4375 C-13.1075 24.7775 -12.7775 24.1175 -12.4375 23.4375 C-16.0675 23.4375 -19.6975 23.4375 -23.4375 23.4375 C-24.21176109 26.24514728 -24.21176109 26.24514728 -24.4375 29.4375 C-23.12614588 31.80040685 -23.12614588 31.80040685 -21.4375 33.4375 C-23.375 32.75 -23.375 32.75 -25.4375 31.4375 C-26.44444433 28.70436539 -26.56836618 27.02639781 -25.9375 24.1875 C-24.4375 22.4375 -24.4375 22.4375 -20.8125 21.6875 C-19.141875 21.56375 -19.141875 21.56375 -17.4375 21.4375 C-18.118125 20.921875 -18.79875 20.40625 -19.5 19.875 C-21.4375 17.4375 -21.4375 17.4375 -21.4375 14.1875 C-17.9702938 1.18547677 -12.88909532 0.06007346 0 0 Z " fill="#CAC9C9" transform="translate(44.4375,84.5625)"/>
<path d="M0 0 C-2.86632944 2.86632944 -6.29316426 3.2315668 -10.125 4.125 C-10.87910156 4.30675781 -11.63320312 4.48851563 -12.41015625 4.67578125 C-14.27191946 5.12354709 -16.13577253 5.56260722 -18 6 C-15.01386614 6.75929472 -12.02485781 7.4118332 -9 8 C-9 8.33 -9 8.66 -9 9 C-10.39412109 9.07347656 -10.39412109 9.07347656 -11.81640625 9.1484375 C-21.07660933 9.69677146 -21.07660933 9.69677146 -30 12 C-28.68 12.99 -27.36 13.98 -26 15 C-31.28 15.33 -36.56 15.66 -42 16 C-37.65540112 12.52432089 -34.11523508 10.35176275 -29.1875 8.0625 C-28.44991455 7.71840088 -27.7123291 7.37430176 -26.95239258 7.01977539 C-21.79370421 4.67601405 -16.58408771 2.66277749 -11.1875 0.9375 C-10.19302856 0.6137439 -10.19302856 0.6137439 -9.1784668 0.28344727 C-5.80304847 -0.73446666 -3.34057556 -1.33791313 0 0 Z " fill="#1B5570" transform="translate(189,87)"/>
<path d="M0 0 C0.33 0.66 0.66 1.32 1 2 C0.690625 2.7425 0.38125 3.485 0.0625 4.25 C-1.19239846 7.49797249 -1.42363986 9.54027444 -1 13 C0.54975263 16.436408 1.78899007 18.44347737 5.26953125 20.04296875 C7.49932915 20.79091671 9.71550897 21.44352142 12 22 C12 22.66 12 23.32 12 24 C5.05978177 24.3638561 0.86577544 24.26885423 -4.59375 19.65234375 C-6.81536372 17.04194763 -6.58568272 14.81621837 -6.50390625 11.49609375 C-5.58947044 6.96644658 -2.82881393 3.56127467 0 0 Z " fill="#01070C" transform="translate(112,88)"/>
<path d="M0 0 C0 3 0 3 -0.9765625 4.90625 C-2.72994069 8.49331378 -2.55269946 12.10239215 -2 16 C-0.28841624 18.90225073 1.06916007 19.7228308 4.26953125 20.67578125 C6.50663635 21.19366227 8.73388727 21.63199879 11 22 C11 22.66 11 23.32 11 24 C9.10489301 24.08160748 7.20875496 24.13946459 5.3125 24.1875 C3.72888672 24.23970703 3.72888672 24.23970703 2.11328125 24.29296875 C-1.39065615 23.96323813 -3.19698511 23.08584712 -6 21 C-7.77010276 17.45979449 -7.65542637 13.85509876 -7 10 C-5.14742753 6.36696117 -2.89723876 2.89723876 0 0 Z " fill="#0F9FD6" transform="translate(109,90)"/>
<path d="M0 0 C1 1 1 1 1.0625 4.5625 C1.041875 5.696875 1.02125 6.83125 1 8 C-0.32 8.33 -1.64 8.66 -3 9 C-2.01 10.485 -2.01 10.485 -1 12 C-2.32 11.34 -3.64 10.68 -5 10 C-5 8.68 -5 7.36 -5 6 C-3.35 6.33 -1.7 6.66 0 7 C-0.33 5.02 -0.66 3.04 -1 1 C-2.43836751 1.11458693 -3.87570966 1.24209116 -5.3125 1.375 C-6.51326172 1.47941406 -6.51326172 1.47941406 -7.73828125 1.5859375 C-10.27224441 1.89564426 -10.27224441 1.89564426 -13 4 C-13.66790364 6.8715965 -13.66790364 6.8715965 -13 10 C-10.56249975 12.68767578 -10.56249975 12.68767578 -8 15 C-8 15.99 -8 16.98 -8 18 C-9.98 17.67 -11.96 17.34 -14 17 C-14 18.98 -14 20.96 -14 23 C-7.565 22.505 -7.565 22.505 -1 22 C-4 25 -4 25 -6.19140625 25.328125 C-6.97386719 25.30234375 -7.75632812 25.2765625 -8.5625 25.25 C-9.74005859 25.22679687 -9.74005859 25.22679687 -10.94140625 25.203125 C-13 25 -13 25 -15 24 C-15 21.03 -15 18.06 -15 15 C-13.68 15 -12.36 15 -11 15 C-11.66 14.505 -12.32 14.01 -13 13.5 C-15.42484235 10.46894706 -15.7243888 8.71525833 -15.50390625 4.91015625 C-15 3 -15 3 -12.5625 0.4375 C-8.05953675 -1.37948517 -4.66814972 -1.14983898 0 0 Z " fill="#B99694" transform="translate(20,123)"/>
<path d="M0 0 C0 3 0 3 -1.5 5.25 C-3.41926929 8.76866036 -3.4317364 11.04241635 -3 15 C-1.39189552 18.30554809 -0.27233179 18.89320322 3.1875 20.25 C4.115625 20.4975 5.04375 20.745 6 21 C6 21.33 6 21.66 6 22 C-3.87616099 22.6130031 -3.87616099 22.6130031 -7.75 20.5 C-9.20328568 17.59342865 -9.38395448 15.43630414 -8.82421875 12.234375 C-7.08029395 7.50676844 -3.53635043 3.53635043 0 0 Z " fill="#0BA1DB" transform="translate(101,96)"/>
<path d="M0 0 C1.77007714 -0.08114106 3.54122098 -0.13925505 5.3125 -0.1875 C6.29863281 -0.22230469 7.28476562 -0.25710937 8.30078125 -0.29296875 C11 0 11 0 12.875 1.3125 C14 3 14 3 13.6875 6.1875 C13.460625 7.115625 13.23375 8.04375 13 9 C9.42355152 10.2380014 6.66305234 9.74926071 3 9 C3.33 6.69 3.66 4.38 4 2 C2.68 1.34 1.36 0.68 0 0 Z " fill="#9F2B26" transform="translate(45,124)"/>
<path d="M0 0 C5.94 0 11.88 0 18 0 C18 2.31 18 4.62 18 7 C17.67 7 17.34 7 17 7 C17 5.02 17 3.04 17 1 C11.72 1 6.44 1 1 1 C1 8.26 1 15.52 1 23 C6.28 23 11.56 23 17 23 C17 23.33 17 23.66 17 24 C11.06 24 5.12 24 -1 24 C-3.35333796 19.29332409 -3.17102038 17.1306114 -3 12 C-2.01 12.495 -2.01 12.495 -1 13 C-0.67 8.71 -0.34 4.42 0 0 Z " fill="#CDAFAD" transform="translate(22,123)"/>
<path d="M0 0 C3.63 0 7.26 0 11 0 C11 7.92 11 15.84 11 24 C8.36 24 5.72 24 3 24 C2.34 23.34 1.68 22.68 1 22 C1.31685792 17.08870223 1.77116709 14.45766583 4 10 C4 14.29 4 18.58 4 23 C5.65 23 7.3 23 9 23 C8.98839844 22.33355469 8.97679687 21.66710937 8.96484375 20.98046875 C8.89891757 14.24658033 9.30408982 7.69813552 10 1 C6.7 1.33 3.4 1.66 0 2 C0 1.34 0 0.68 0 0 Z " fill="#C9AAA7" transform="translate(160,123)"/>
<path d="M0 0 C0.33 0 0.66 0 1 0 C1.0270817 2.72923388 1.04687847 5.45819637 1.0625 8.1875 C1.07087891 8.95642578 1.07925781 9.72535156 1.08789062 10.51757812 C1.10491934 14.48526789 0.98604115 18.12571234 0 22 C1.65 22 3.3 22 5 22 C5.33 17.38 5.66 12.76 6 8 C8.28062828 11.42094242 8.21925007 12.68187222 8.125 16.6875 C8.10695312 17.68136719 8.08890625 18.67523438 8.0703125 19.69921875 C8.03550781 20.83810547 8.03550781 20.83810547 8 22 C10.31 22 12.62 22 15 22 C15 22.33 15 22.66 15 23 C9.72 23 4.44 23 -1 23 C-0.67 15.41 -0.34 7.82 0 0 Z " fill="#D4AFAD" transform="translate(146,124)"/>
<path d="M0 0 C0.66 0.33 1.32 0.66 2 1 C2.07427838 4.34252724 2.06546953 6.8035914 1 10 C1.33 10.78375 1.66 11.5675 2 12.375 C3.15661633 15.41111787 2.87798706 16.92704527 2 20 C4.31 20.33 6.62 20.66 9 21 C9.33 19.35 9.66 17.7 10 16 C11 19 11 19 10 22 C0.76 22 -8.48 22 -18 22 C-17.67 21.34 -17.34 20.68 -17 20 C-15.41058594 20.03480469 -15.41058594 20.03480469 -13.7890625 20.0703125 C-12.4010487 20.08906944 -11.0130273 20.10726972 -9.625 20.125 C-8.92632812 20.14175781 -8.22765625 20.15851563 -7.5078125 20.17578125 C-5.67102514 20.19344267 -3.83398037 20.10303261 -2 20 C-1.34 19.34 -0.68 18.68 0 18 C-0.23864442 12.96494948 -0.23864442 12.96494948 -3 9 C-2.505 8.62875 -2.01 8.2575 -1.5 7.875 C0.59755514 5.25305607 0.21743835 3.26157528 0 0 Z " fill="#D2B5B4" transform="translate(58,125)"/>
<path d="M0 0 C1.98 0 3.96 0 6 0 C2.18210715 3.47081168 -1.05221238 4.69303723 -6 6 C-6.66 6.66 -7.32 7.32 -8 8 C-15.28726029 10.51364358 -22.32864363 11.45824474 -30 11 C-30 10.67 -30 10.34 -30 10 C-28.02 9.67 -26.04 9.34 -24 9 C-24 8.67 -24 8.34 -24 8 C-19.05 7.67 -14.1 7.34 -9 7 C-9 6.01 -9 5.02 -9 4 C-7.68 4 -6.36 4 -5 4 C-5 3.34 -5 2.68 -5 2 C-3.35 1.67 -1.7 1.34 0 1 C0 0.67 0 0.34 0 0 Z " fill="#226683" transform="translate(129,108)"/>
<path d="M0 0 C0.66 0.33 1.32 0.66 2 1 C0.60886005 2.27596932 -0.78814413 3.54554648 -2.1875 4.8125 C-2.96480469 5.52019531 -3.74210937 6.22789062 -4.54296875 6.95703125 C-6.92933142 8.94124059 -9.32340844 10.44147833 -12 12 C-13.45252593 13.04186415 -14.89118422 14.10344559 -16.3125 15.1875 C-17.00988281 15.71730469 -17.70726562 16.24710938 -18.42578125 16.79296875 C-18.94527344 17.19128906 -19.46476563 17.58960938 -20 18 C-20.66 17.67 -21.32 17.34 -22 17 C-20.76302083 15.53515625 -19.52604167 14.0703125 -18.2890625 12.60546875 C-17.10798901 11.1344954 -16.04641471 9.56962206 -15 8 C-14.01 8.33 -13.02 8.66 -12 9 C-9.99759404 7.63294076 -9.99759404 7.63294076 -8.0625 5.6875 C-5.51934359 3.27174641 -3.31354539 1.25209126 0 0 Z " fill="#1A4A61" transform="translate(196,130)"/>
<path d="M0 0 C1.06992187 0.00644531 2.13984375 0.01289062 3.2421875 0.01953125 C4.35335937 0.03628906 5.46453125 0.05304688 6.609375 0.0703125 C7.73601563 0.07933594 8.86265625 0.08835937 10.0234375 0.09765625 C12.80229865 0.12120592 15.5807289 0.1540957 18.359375 0.1953125 C19.019375 1.5153125 19.679375 2.8353125 20.359375 4.1953125 C19.699375 4.1953125 19.039375 4.1953125 18.359375 4.1953125 C18.359375 3.5353125 18.359375 2.8753125 18.359375 2.1953125 C10.109375 2.1953125 1.859375 2.1953125 -6.640625 2.1953125 C-6.970625 3.1853125 -7.300625 4.1753125 -7.640625 5.1953125 C-8.630625 5.1953125 -9.620625 5.1953125 -10.640625 5.1953125 C-9.640625 2.1953125 -9.640625 2.1953125 -7.93066406 1.02001953 C-5.15698821 0.02114138 -2.94683325 -0.03134929 0 0 Z " fill="#8F0A0D" transform="translate(38.640625,85.8046875)"/>
<path d="M0 0 C0.721875 0.804375 1.44375 1.60875 2.1875 2.4375 C6.89409968 6.4717283 13.09419344 5.90361443 19 6 C18.67 7.32 18.34 8.64 18 10 C21.3 10 24.6 10 28 10 C28 9.01 28 8.02 28 7 C28.66 7 29.32 7 30 7 C29.34 8.65 28.68 10.3 28 12 C24.37 12 20.74 12 17 12 C16.67 10.68 16.34 9.36 16 8 C15.18015625 7.98582031 14.3603125 7.97164063 13.515625 7.95703125 C4.63636364 7.56404959 4.63636364 7.56404959 1.25 4.5625 C0 2 0 2 0 0 Z " fill="#C5C5C5" transform="translate(53,109)"/>
<path d="M0 0 C0.99 1.32 1.98 2.64 3 4 C-1.06259868 10.71211955 -6.56204248 18.9571992 -14 22 C-13.63648438 21.52691406 -13.27296875 21.05382812 -12.8984375 20.56640625 C-5.41118908 10.88635167 -5.41118908 10.88635167 0 0 Z " fill="#1595C7" transform="translate(211,108)"/>
<path d="M0 0 C1.32 0 2.64 0 4 0 C3.45831243 4.0879355 2.25768123 6.42190476 -0.3125 9.625 C-1.20388672 10.75808594 -1.20388672 10.75808594 -2.11328125 11.9140625 C-3.93593358 13.9291688 -5.77247775 15.45597796 -8 17 C-7.73445312 16.47921875 -7.46890625 15.9584375 -7.1953125 15.421875 C-5.69878689 12.38969892 -4.28808257 9.32191863 -2.875 6.25 C-2.33617187 5.07953125 -1.79734375 3.9090625 -1.2421875 2.703125 C-0.83226562 1.81109375 -0.42234375 0.9190625 0 0 Z " fill="#0E9DD7" transform="translate(197,118)"/>
<path d="M0 0 C3.63 0 7.26 0 11 0 C10.67 1.65 10.34 3.3 10 5 C6.37 5 2.74 5 -1 5 C-0.67 3.35 -0.34 1.7 0 0 Z " fill="#DFE0DF" transform="translate(37,94)"/>
<path d="M0 0 C4.71113339 7.06670009 6.54474747 13.55641417 6 22 C4.22554485 19.33831727 3.51793179 17.76390481 2.7109375 14.76953125 C2.38222656 13.56586914 2.38222656 13.56586914 2.046875 12.33789062 C1.82515625 11.50451172 1.6034375 10.67113281 1.375 9.8125 C1.14554687 8.96751953 0.91609375 8.12253906 0.6796875 7.25195312 C0.11489745 5.16928982 -0.44319964 3.08481356 -1 1 C-0.67 0.67 -0.34 0.34 0 0 Z " fill="#0E0E0E" transform="translate(79,123)"/>
<path d="M0 0 C0.66 0.33 1.32 0.66 2 1 C3.87056791 1.2275015 5.74685958 1.40962811 7.625 1.5625 C8.62789062 1.64628906 9.63078125 1.73007813 10.6640625 1.81640625 C11.43492188 1.87699219 12.20578125 1.93757813 13 2 C13 2.33 13 2.66 13 3 C8.71 3 4.42 3 0 3 C-0.33 4.32 -0.66 5.64 -1 7 C-3.64 7.33 -6.28 7.66 -9 8 C-6.14723863 5.06799526 -3.34920216 2.35684596 0 0 Z " fill="#888889" transform="translate(75,99)"/>
<path d="M0 0 C2.64 0 5.28 0 8 0 C8.33 0.66 8.66 1.32 9 2 C8.67 2.66 8.34 3.32 8 4 C4.37 4 0.74 4 -3 4 C-2.34 3.67 -1.68 3.34 -1 3 C-0.67 2.01 -0.34 1.02 0 0 Z " fill="#646463" transform="translate(34,108)"/>
<path d="M0 0 C0 3 0 3 -2 6 C-2.45394552 8.27912938 -2.45394552 8.27912938 -2.625 10.6875 C-2.69976562 11.49574219 -2.77453125 12.30398437 -2.8515625 13.13671875 C-2.90054688 13.75160156 -2.94953125 14.36648437 -3 15 C-3.66 13.68 -4.32 12.36 -5 11 C-5.66 13.64 -6.32 16.28 -7 19 C-7.33 19 -7.66 19 -8 19 C-7.75428474 11.25996945 -5.5769989 5.5769989 0 0 Z " fill="#1A7AA1" transform="translate(118,82)"/>
<path d="M0 0 C0 3.57957834 -0.81792457 4.46310605 -2.875 7.3125 C-5.28019181 10.78414478 -6.93992305 13.86569988 -8 18 C-9.29672844 15.05288991 -8.94025478 13.8137355 -7.9375 10.6875 C-6.01422532 6.53538363 -3.11024226 3.31155243 0 0 Z " fill="#1884B2" transform="translate(101,96)"/>
<path d="M0 0 C0.66 0.33 1.32 0.66 2 1 C-1.72185774 6.50187666 -7.11765695 10.05882848 -13 13 C-11.44533803 8.91667098 -8.74912156 6.91791007 -5.375 4.25 C-4.37210938 3.45078125 -3.36921875 2.6515625 -2.3359375 1.828125 C-1.17964844 0.92320313 -1.17964844 0.92320313 0 0 Z " fill="#173E52" transform="translate(115,83)"/>
<path d="M0 0 C0.66 0.33 1.32 0.66 2 1 C-2.30769231 6.78461538 -2.30769231 6.78461538 -5.8125 7.875 C-6.534375 7.91625 -7.25625 7.9575 -8 8 C-7.67 9.32 -7.34 10.64 -7 12 C-7.99 11.34 -8.98 10.68 -10 10 C-8.5741914 6.54804233 -6.90253666 4.8985744 -3.875 2.75 C-3.15054688 2.22921875 -2.42609375 1.7084375 -1.6796875 1.171875 C-1.12539063 0.78515625 -0.57109375 0.3984375 0 0 Z " fill="#B4A09F" transform="translate(60,97)"/>
<path d="M0 0 C0.33 0 0.66 0 1 0 C1 4.29 1 8.58 1 13 C2.98 13 4.96 13 7 13 C7 13.33 7 13.66 7 14 C3.625 14.125 3.625 14.125 0 14 C-0.66 13.34 -1.32 12.68 -2 12 C-1.66887313 7.89402683 -1.15559618 3.96204403 0 0 Z " fill="#E0BEBC" transform="translate(163,133)"/>
<path d="M0 0 C1.66519519 0.34060811 3.33157466 0.67558396 5 1 C5 1.33 5 1.66 5 2 C-4.405 2.495 -4.405 2.495 -14 3 C-9.63826427 0.09217618 -5.12411687 -1.87884285 0 0 Z " fill="#1B749A" transform="translate(175,94)"/>
<path d="M0 0 C4.95 1.98 4.95 1.98 10 4 C10 4.33 10 4.66 10 5 C8.20866022 5.05391993 6.41686101 5.09275571 4.625 5.125 C3.62726563 5.14820312 2.62953125 5.17140625 1.6015625 5.1953125 C-1 5 -1 5 -3 3 C-2.01 2.67 -1.02 2.34 0 2 C0 1.34 0 0.68 0 0 Z " fill="#1991C2" transform="translate(120,105)"/>
<path d="M0 0 C2.09350689 3.4019487 2.17942163 6.05272412 2 10 C1.34 10 0.68 10 0 10 C-0.33 10.66 -0.66 11.32 -1 12 C-2 11 -2 11 -2.1875 8.8125 C-1.97397604 5.60964058 -1.11554182 2.99801865 0 0 Z " fill="#987A78" transform="translate(40,135)"/>
<path d="M0 0 C0 3 0 3 -0.9375 4.6875 C-2.4886974 8.06363551 -2.63093547 11.3093547 -3 15 C-3.33 15 -3.66 15 -4 15 C-4.144375 14.21625 -4.28875 13.4325 -4.4375 12.625 C-4.87798925 10.03578982 -4.87798925 10.03578982 -6 8 C-4.02 5.36 -2.04 2.72 0 0 Z " fill="#1F93C3" transform="translate(109,90)"/>
<path d="M0 0 C0 3 0 3 -0.9375 4.75 C-2.36139207 7.76530084 -2.62011643 10.70767573 -3 14 C-4.625 12.3125 -4.625 12.3125 -6 10 C-5.05693882 5.91340154 -2.69314286 3.142 0 0 Z " fill="#03141F" transform="translate(105,93)"/>
<path d="M0 0 C0.66 0.33 1.32 0.66 2 1 C-0.8475202 5.05224029 -3.36660757 7.1869334 -8 9 C-8.66 8.67 -9.32 8.34 -10 8 C-6.7 5.36 -3.4 2.72 0 0 Z " fill="#AC9A99" transform="translate(72,88)"/>
<path d="M0 0 C2.64 0 5.28 0 8 0 C8 0.99 8 1.98 8 3 C5.36 3 2.72 3 0 3 C0 2.01 0 1.02 0 0 Z " fill="#222223" transform="translate(38,95)"/>
<path d="M0 0 C0.33 0 0.66 0 1 0 C1 1.98 1 3.96 1 6 C-0.32 6.33 -1.64 6.66 -3 7 C-2.01 8.485 -2.01 8.485 -1 10 C-2.32 9.34 -3.64 8.68 -5 8 C-5 6.68 -5 5.36 -5 4 C-3.35 4.33 -1.7 4.66 0 5 C0 3.35 0 1.7 0 0 Z " fill="#C4A19F" transform="translate(20,125)"/>
<path d="M0 0 C1.98 0 3.96 0 6 0 C3.12835434 2.70272533 1.69008159 3.94791837 -2.3125 4.25 C-3.199375 4.1675 -4.08625 4.085 -5 4 C-5 3.34 -5 2.68 -5 2 C-3.35 1.67 -1.7 1.34 0 1 C0 0.67 0 0.34 0 0 Z " fill="#173D4D" transform="translate(129,108)"/>
<path d="M0 0 C1.98 0 3.96 0 6 0 C6 2.31 6 4.62 6 7 C1.125 2.25 1.125 2.25 0 0 Z " fill="#0C0C0B" transform="translate(16,131)"/>
<path d="M0 0 C0.33 0 0.66 0 1 0 C0.67 3.3 0.34 6.6 0 10 C-0.66 10 -1.32 10 -2 10 C-2.25 3.375 -2.25 3.375 0 0 Z " fill="#101111" transform="translate(111,129)"/>
<path d="M0 0 C0.99 0.33 1.98 0.66 3 1 C0.36 3.64 -2.28 6.28 -5 9 C-5.66 8.67 -6.32 8.34 -7 8 C-4.69 5.36 -2.38 2.72 0 0 Z " fill="#287CA1" transform="translate(204,121)"/>
<path d="M0 0 C0.66 1.32 1.32 2.64 2 4 C-0.31 5.98 -2.62 7.96 -5 10 C-3.33333333 6.66666667 -1.66666667 3.33333333 0 0 Z " fill="#1E8FBC" transform="translate(194,125)"/>
<path d="M0 0 C2.475 0.495 2.475 0.495 5 1 C5 1.99 5 2.98 5 4 C3.35 4 1.7 4 0 4 C0 2.68 0 1.36 0 0 Z " fill="#B29794" transform="translate(48,137)"/>
<path d="M0 0 C0.99 0.33 1.98 0.66 3 1 C0.69 3.31 -1.62 5.62 -4 8 C-4 4.09161134 -2.49432124 2.88405893 0 0 Z " fill="#020F1D" transform="translate(198,125)"/>
<path d="M0 0 C0.33 0.99 0.66 1.98 1 3 C-1.97 5.475 -1.97 5.475 -5 8 C-3.8141763 4.62496331 -2.72426311 2.35277269 0 0 Z " fill="#021019" transform="translate(188,132)"/>
<path d="M0 0 C0.33 1.32 0.66 2.64 1 4 C-0.32 4.99 -1.64 5.98 -3 7 C-2.625 4.0625 -2.625 4.0625 -2 1 C-1.34 0.67 -0.68 0.34 0 0 Z " fill="#129BD1" transform="translate(184,133)"/>
<path d="M0 0 C1.32 0 2.64 0 4 0 C3.67 1.65 3.34 3.3 3 5 C1.68 4.67 0.36 4.34 -1 4 C-0.67 2.68 -0.34 1.36 0 0 Z " fill="#0F97CD" transform="translate(197,118)"/>
</svg>
